# Blender v2.83.2 OBJ File: ''
# www.blender.org
mtllib FATIA.mtl
o Plano_Plano.004
v -0.260070 -1.000282 0.347832
v 0.257642 -1.000282 0.347832
v -0.059170 -1.000282 -0.399062
v 0.059239 -1.000282 -0.399062
v -0.260021 -1.000282 0.347839
v 0.257592 -1.000282 0.347839
v -0.184207 -1.000282 0.355495
v -0.095926 -1.000282 0.360308
v -0.001193 -1.000282 0.361949
v 0.093534 -1.000282 0.360308
v 0.181801 -1.000282 0.355495
v -0.260070 -0.983443 0.347832
v 0.257642 -0.983443 0.347832
v -0.059170 -0.983443 -0.399062
v 0.059239 -0.983443 -0.399062
v -0.260021 -0.983443 0.347839
v 0.257592 -0.983443 0.347839
v -0.184207 -0.983443 0.355495
v -0.095926 -0.983443 0.360308
v -0.001193 -0.983443 0.361949
v 0.093534 -0.983443 0.360308
v 0.181801 -0.983443 0.355495
vt 0.000000 0.000000
vt 0.000000 0.000000
vt 0.000000 0.000000
vt 0.000000 0.000000
vt 0.000000 0.000000
vt 0.000000 0.000000
vt 0.000000 0.000000
vt 0.000000 0.000000
vt 0.000000 0.000000
vt 0.000000 0.000000
vt 0.000000 0.000000
vt 0.000000 0.000000
vt 0.000000 0.000000
vt 0.000000 0.000000
vt 0.000000 0.000000
vt 0.000000 0.000000
vt 0.000000 0.000000
vt 0.000000 0.000000
vt 0.000000 0.000000
vt 0.000000 0.000000
vt 0.000000 0.000000
vt 0.000000 0.000000
vn 0.0000 -1.0000 -0.0000
vn 0.0000 1.0000 -0.0000
vn -0.1299 0.0000 0.9915
vn 0.1316 0.0000 0.9913
vn -0.9657 0.0000 -0.2597
vn 0.0173 0.0000 0.9998
vn -0.1005 0.0000 0.9949
vn 0.9665 0.0000 -0.2567
vn 0.0544 0.0000 0.9985
vn -0.0544 0.0000 0.9985
vn 0.0000 0.0000 -1.0000
vn 0.1005 0.0000 0.9949
vn -0.0173 0.0000 0.9998
usemtl None
s off
f 4/1/1 2/2/1 6/3/1 11/4/1 10/5/1 9/6/1 8/7/1 7/8/1 5/9/1 1/10/1 3/11/1
f 15/12/2 14/13/2 12/14/2 16/15/2 18/16/2 19/17/2 20/18/2 21/19/2 22/20/2 17/21/2 13/22/2
f 1/10/3 5/9/3 16/15/3 12/14/3
f 6/3/4 2/2/4 13/22/4 17/21/4
f 3/11/5 1/10/5 12/14/5 14/13/5
f 9/6/6 10/5/6 21/19/6 20/18/6
f 5/9/7 7/8/7 18/16/7 16/15/7
f 2/2/8 4/1/8 15/12/8 13/22/8
f 10/5/9 11/4/9 22/20/9 21/19/9
f 7/8/10 8/7/10 19/17/10 18/16/10
f 4/1/11 3/11/11 14/13/11 15/12/11
f 11/4/12 6/3/12 17/21/12 22/20/12
f 8/7/13 9/6/13 20/18/13 19/17/13
